# xmcd
#
# Track frame offsets:
#  150
#  15490
#  33154
#  58918
#  74258
#
# Disc length: 1253 seconds
#
# Revision: 1
# Processed by: cddbd v1.5.1PL0 Copyright (c) Steve Scherf et al.
# Submitted via: Collectorz.com_Music_Collector 6.9
#
DISCID=3a04e305
DTITLE=Summer And The Sinners - Stranger's Blues
DYEAR=2004
DGENRE=Blues -  Blues Female Vocalist
TTITLE0=You Could Of Had Me Baby
TTITLE1=Walkin' Blues
TTITLE2=Stranger's Blues
TTITLE3=Hands Off
TTITLE4=Reconsider Babe Medley
EXTD=
EXTT0=
EXTT1=
EXTT2=
EXTT3=
EXTT4=
PLAYORDER=
